<svg height="25" viewBox="0 0 64 64" width="25" xmlns="http://www.w3.org/2000/svg"><path d="m63.414 40.586-6-6a2 2 0 0 0 -2.828 0l-1.856 1.855-10.873-27.184a2 2 0 0 0 -1.445-1.214l-38-8h-.012a1.989 1.989 0 0 0 -.449-.038c-.043 0-.086.008-.129.012a2.017 2.017 0 0 0 -.317.053c-.049.013-.1.027-.144.043a1.969 1.969 0 0 0 -.295.129c-.039.021-.079.038-.117.058a1.979 1.979 0 0 0 -.363.286 1.985 1.985 0 0 0 -.286.363c-.023.038-.04.077-.06.116a1.914 1.914 0 0 0 -.131.3c-.009.045-.026.09-.038.135a1.885 1.885 0 0 0 -.054.325c0 .041-.011.081-.012.123a2 2 0 0 0 .037.45v.012l8 38a2 2 0 0 0 1.214 1.445l27.185 10.875-1.855 1.856a2 2 0 0 0 0 2.828l6 6a2 2 0 0 0 2.828 0l20-20a2 2 0 0 0 0-2.828zm-51.677-2.045-6.394-30.37 13.243 13.243a2.02 2.02 0 0 0 .276.226 7.007 7.007 0 1 0 2.778-2.778 2.02 2.02 0 0 0 -.226-.276l-13.243-13.243 30.37 6.394 11.112 27.782-10.134 10.134zm13.263-16.541a3 3 0 1 1 -3 3 3 3 0 0 1 3-3zm17 37.172-3.171-3.172 17.171-17.172 3.171 3.172z"/></svg>